<svg width="375" height="644" viewBox="0 0 375 644" fill="none" xmlns="http://www.w3.org/2000/svg">
<path d="M375 644H0V0H375V644ZM187 112C117.964 112 62 179.157 62 262C62 344.843 117.964 412 187 412C256.036 412 312 344.843 312 262C312 179.157 256.036 112 187 112Z" fill="#111111" fill-opacity="0.75"/>
<path d="M187 111C187.678 111 188.355 111.007 189.03 111.02L189.012 112.019L189.011 112.021C190.349 112.047 191.683 112.097 193.011 112.173L193.012 112.171L193.068 111.172C194.421 111.249 195.768 111.351 197.108 111.479L197.014 112.475L197.013 112.477C198.345 112.603 199.671 112.754 200.991 112.931L200.992 112.93L201.125 111.938C202.465 112.118 203.798 112.322 205.125 112.551L204.954 113.536L204.953 113.538C206.272 113.766 207.585 114.017 208.891 114.294L208.892 114.293L209.099 113.314C210.419 113.594 211.732 113.899 213.038 114.228L212.794 115.197L212.793 115.2C214.09 115.527 215.38 115.875 216.662 116.249L216.943 115.289C218.238 115.667 219.525 116.069 220.804 116.495L220.488 117.443L220.487 117.445C221.755 117.867 223.015 118.312 224.266 118.78L224.267 118.779L224.617 117.843C225.879 118.315 227.133 118.811 228.378 119.329L227.994 120.253L227.993 120.255C229.226 120.768 230.45 121.303 231.664 121.86L231.665 121.859L232.083 120.951C233.307 121.513 234.522 122.098 235.728 122.704L235.278 123.598L235.277 123.599C236.469 124.198 237.651 124.819 238.824 125.461L238.825 125.46L239.306 124.582C240.486 125.228 241.658 125.897 242.818 126.585L242.309 127.445H242.308C243.455 128.126 244.592 128.829 245.72 129.55L245.722 129.548L246.26 128.706C247.392 129.43 248.515 130.174 249.626 130.938L249.06 131.763H249.059C250.158 132.519 251.246 133.296 252.324 134.091L252.326 134.09L252.92 133.284C254.001 134.081 255.072 134.898 256.132 135.732L255.513 136.518H255.512C256.559 137.343 257.594 138.187 258.619 139.049L258.621 139.048L259.265 138.282C260.294 139.148 261.313 140.031 262.319 140.932L261.652 141.677L261.651 141.678C262.643 142.565 263.624 143.471 264.593 144.393L264.595 144.392L265.283 143.667C266.257 144.593 267.218 145.536 268.168 146.495L267.458 147.199L267.456 147.2C268.394 148.148 269.319 149.111 270.233 150.091L270.235 150.09L270.967 149.407C271.882 150.388 272.785 151.385 273.676 152.396L272.925 153.058L272.923 153.059C273.805 154.06 274.675 155.076 275.532 156.108H275.533L276.303 155.47C277.159 156.501 278.003 157.546 278.834 158.606L278.048 159.224L278.046 159.225C278.868 160.274 279.679 161.336 280.477 162.413L281.281 161.817C282.08 162.896 282.866 163.989 283.639 165.095L282.819 165.668L282.817 165.669C283.58 166.76 284.33 167.864 285.066 168.981L285.069 168.98L285.904 168.431C286.644 169.552 287.371 170.687 288.084 171.834L287.235 172.362H287.234C287.937 173.492 288.625 174.634 289.302 175.788L289.304 175.787L290.166 175.281C290.845 176.439 291.511 177.609 292.163 178.79L291.287 179.273H291.286C291.93 180.44 292.561 181.618 293.178 182.807L294.066 182.346C294.684 183.535 295.288 184.736 295.878 185.947L294.979 186.386L294.977 186.387C295.561 187.586 296.133 188.795 296.69 190.016H296.692L297.602 189.6C298.158 190.817 298.701 192.045 299.229 193.283L298.309 193.676C298.833 194.903 299.342 196.141 299.839 197.388H299.841L300.77 197.018C301.265 198.261 301.747 199.513 302.215 200.775L301.277 201.123L301.274 201.124C301.738 202.374 302.188 203.633 302.623 204.901H302.625L303.57 204.576C304.005 205.844 304.427 207.12 304.834 208.404L303.88 208.706C304.282 209.976 304.67 211.254 305.044 212.54H305.046L306.006 212.261C306.381 213.549 306.741 214.845 307.087 216.148L306.121 216.405H306.118C306.46 217.692 306.787 218.986 307.101 220.287H307.104L308.075 220.053C308.389 221.358 308.689 222.671 308.975 223.99L307.998 224.201H307.995C308.276 225.501 308.545 226.808 308.798 228.121H308.799L309.78 227.932C310.034 229.25 310.273 230.576 310.498 231.907L309.512 232.073H309.51C309.731 233.385 309.938 234.702 310.131 236.025H310.133L311.122 235.881C311.315 237.209 311.494 238.543 311.658 239.882L310.665 240.004H310.662C310.824 241.325 310.972 242.651 311.104 243.982H311.107L312.103 243.883C312.236 245.217 312.354 246.557 312.458 247.901L311.461 247.979H311.458C311.561 249.306 311.649 250.638 311.723 251.975H311.726L312.724 251.92C312.797 253.258 312.856 254.601 312.9 255.948L311.901 255.98H311.899C311.943 257.312 311.974 258.647 311.988 259.987L312.989 259.977C312.997 260.65 313 261.324 313 262C313 262.676 312.997 263.35 312.989 264.023L311.989 264.013L311.988 264.012C311.974 265.352 311.943 266.687 311.899 268.019L311.901 268.02L312.9 268.052C312.856 269.399 312.797 270.742 312.724 272.08L311.726 272.025L311.723 272.024C311.649 273.361 311.561 274.693 311.458 276.021L311.461 276.021L312.458 276.099C312.354 277.443 312.236 278.783 312.103 280.117L311.107 280.018L311.104 280.017C310.972 281.348 310.824 282.674 310.662 283.995L310.665 283.996L311.658 284.118C311.494 285.457 311.315 286.791 311.122 288.119L310.133 287.975L310.131 287.974C309.938 289.297 309.731 290.614 309.51 291.926L309.512 291.927L310.498 292.093C310.273 293.424 310.034 294.75 309.78 296.068L308.799 295.879L308.798 295.878C308.545 297.191 308.276 298.498 307.995 299.798L307.998 299.799L308.975 300.01C308.689 301.329 308.389 302.642 308.075 303.947L307.104 303.713L307.101 303.712C306.787 305.013 306.46 306.307 306.118 307.594L306.121 307.595L307.087 307.852C306.741 309.155 306.381 310.451 306.006 311.739L305.046 311.46L305.044 311.459C304.67 312.745 304.282 314.023 303.88 315.293L303.881 315.294L304.834 315.596C304.427 316.88 304.005 318.156 303.57 319.424L302.625 319.1L302.623 319.099C302.188 320.366 301.738 321.625 301.274 322.875L301.277 322.877L302.215 323.225C301.747 324.487 301.265 325.739 300.77 326.982L299.841 326.612L299.839 326.611C299.342 327.858 298.833 329.096 298.309 330.323L298.31 330.324L299.229 330.717C298.701 331.955 298.158 333.183 297.602 334.4L296.692 333.984L296.69 333.983C296.133 335.204 295.561 336.413 294.977 337.612L294.979 337.614L295.878 338.053C295.288 339.264 294.684 340.465 294.066 341.654L293.179 341.193L293.178 341.192C292.561 342.381 291.93 343.559 291.286 344.726L291.287 344.727L292.163 345.21C291.511 346.391 290.845 347.561 290.166 348.719L289.304 348.213L289.302 348.211C288.625 349.365 287.937 350.507 287.234 351.637L287.235 351.638L288.084 352.166C287.371 353.313 286.644 354.448 285.904 355.569L285.069 355.02L285.066 355.018C284.33 356.135 283.58 357.239 282.817 358.33L282.819 358.332L283.639 358.905C282.866 360.011 282.08 361.104 281.281 362.183L280.478 361.587L280.477 361.586C279.679 362.663 278.868 363.726 278.046 364.774L278.048 364.776L278.834 365.394C278.003 366.454 277.159 367.499 276.303 368.53L275.533 367.892L275.532 367.891C274.675 368.923 273.805 369.939 272.923 370.94L272.925 370.942L273.676 371.604C272.785 372.615 271.882 373.612 270.967 374.593L270.235 373.91L270.233 373.908C269.32 374.888 268.394 375.851 267.456 376.799L267.458 376.801L268.168 377.505C267.218 378.464 266.257 379.407 265.283 380.333L264.594 379.608L264.592 379.606C263.623 380.528 262.643 381.434 261.651 382.321L261.652 382.323L262.319 383.068C261.313 383.969 260.294 384.852 259.265 385.718L258.621 384.952L258.619 384.95C257.594 385.812 256.559 386.656 255.512 387.481L255.513 387.482L256.132 388.268C255.072 389.102 254.001 389.919 252.92 390.716L252.326 389.91L252.324 389.908C251.246 390.703 250.158 391.48 249.059 392.236L249.06 392.237L249.626 393.062C248.515 393.826 247.392 394.57 246.26 395.294L245.721 394.452L245.719 394.449C244.591 395.17 243.455 395.873 242.308 396.554L242.309 396.555L242.818 397.415C241.658 398.103 240.486 398.772 239.306 399.418L238.825 398.54L238.824 398.538C237.651 399.18 236.469 399.801 235.277 400.4L235.278 400.402L235.728 401.296C234.522 401.902 233.307 402.487 232.083 403.049L231.665 402.141L231.664 402.139C230.45 402.696 229.226 403.231 227.993 403.744L227.994 403.747L228.378 404.671C227.133 405.189 225.879 405.685 224.617 406.157L224.267 405.221L224.266 405.219C223.015 405.687 221.755 406.132 220.487 406.554L220.488 406.557L220.804 407.505C219.525 407.931 218.238 408.333 216.943 408.711L216.663 407.751L216.662 407.75C215.38 408.124 214.09 408.472 212.793 408.799L212.794 408.803L213.038 409.772C211.732 410.101 210.419 410.406 209.099 410.686L208.892 409.707L208.891 409.705C207.585 409.982 206.272 410.233 204.953 410.461L204.954 410.464L205.125 411.449C203.798 411.678 202.465 411.882 201.125 412.062L200.992 411.07L200.991 411.068C199.671 411.245 198.345 411.396 197.013 411.522L197.014 411.525L197.108 412.521C195.768 412.649 194.421 412.751 193.068 412.828L193.012 411.829L193.011 411.826C191.683 411.902 190.349 411.952 189.011 411.978L189.012 411.981L189.03 412.98C188.355 412.993 187.678 413 187 413C186.322 413 185.645 412.993 184.97 412.98L184.988 411.981V411.978C183.65 411.952 182.316 411.902 180.988 411.826V411.829L180.932 412.828C179.579 412.751 178.232 412.649 176.892 412.521L176.986 411.525V411.522C175.654 411.396 174.328 411.245 173.008 411.068V411.07L172.875 412.062C171.535 411.882 170.202 411.678 168.875 411.449L169.046 410.464V410.461C167.727 410.233 166.414 409.982 165.108 409.705V409.707L164.901 410.686C163.581 410.406 162.268 410.101 160.962 409.772L161.206 408.803V408.799C159.909 408.472 158.619 408.124 157.337 407.75V407.751L157.057 408.711C155.762 408.333 154.475 407.931 153.196 407.505L153.512 406.557V406.554C152.244 406.132 150.984 405.687 149.733 405.219V405.221L149.383 406.157C148.121 405.685 146.867 405.189 145.622 404.671L146.006 403.747V403.744C144.773 403.231 143.549 402.696 142.335 402.139V402.141L141.917 403.049C140.693 402.487 139.478 401.902 138.272 401.296L138.722 400.402V400.4C137.53 399.801 136.348 399.18 135.175 398.538V398.54L134.694 399.418C133.514 398.772 132.342 398.103 131.182 397.415L131.691 396.555V396.554C130.544 395.873 129.407 395.171 128.279 394.449L128.278 394.452L127.74 395.294C126.608 394.57 125.485 393.826 124.374 393.062L124.94 392.237V392.236C123.841 391.48 122.753 390.703 121.675 389.908L121.674 389.91L121.08 390.716C119.999 389.919 118.928 389.102 117.868 388.268L118.487 387.482V387.481C117.44 386.656 116.405 385.812 115.38 384.95L115.379 384.952L114.735 385.718C113.706 384.852 112.687 383.969 111.681 383.068L112.348 382.323V382.321C111.356 381.434 110.375 380.528 109.406 379.606L109.405 379.608L108.717 380.333C107.743 379.407 106.782 378.464 105.832 377.505L106.542 376.801L106.543 376.799C105.605 375.851 104.68 374.888 103.766 373.908L103.765 373.91L103.033 374.593C102.118 373.612 101.215 372.615 100.324 371.604L101.075 370.942L101.076 370.94C100.194 369.939 99.3239 368.923 98.4668 367.891V367.892L97.6973 368.53C96.841 367.499 95.9972 366.454 95.166 365.394L95.9521 364.776L95.9531 364.774C95.1306 363.726 94.3198 362.663 93.5225 361.586V361.587L92.7188 362.183C91.9201 361.104 91.1342 360.011 90.3613 358.905L91.1807 358.332L91.1816 358.33C90.4191 357.239 89.6695 356.135 88.9326 355.018L88.9307 355.02L88.0957 355.569C87.3559 354.448 86.6295 353.313 85.916 352.166L86.7646 351.638V351.637C86.0621 350.507 85.3737 349.365 84.6973 348.211L84.6963 348.213L83.834 348.719C83.1552 347.561 82.489 346.391 81.8369 345.21L82.7129 344.727V344.726C82.0691 343.559 81.4384 342.381 80.8213 341.192V341.193L79.9336 341.654C79.3162 340.465 78.7124 339.264 78.1221 338.053L79.0205 337.614L79.0225 337.612C78.438 336.413 77.8659 335.204 77.3086 333.983L77.3076 333.984L76.3984 334.4C75.8423 333.183 75.2992 331.955 74.7705 330.717L75.6904 330.324V330.323C75.1662 329.096 74.6568 327.858 74.1602 326.611L74.1592 326.612L73.2305 326.982C72.7351 325.739 72.2527 324.487 71.7852 323.225L72.7227 322.877L72.7246 322.875C72.2614 321.625 71.8113 320.366 71.376 319.098L71.375 319.099L70.4297 319.424C69.9946 318.156 69.573 316.88 69.166 315.596L70.1191 315.294V315.293C69.7169 314.023 69.3292 312.745 68.9551 311.459L68.9541 311.46L67.9941 311.739C67.6194 310.451 67.2593 309.155 66.9131 307.852L67.8789 307.595L67.8809 307.594C67.5392 306.307 67.2117 305.013 66.8984 303.712L66.8965 303.713L65.9248 303.947C65.6105 302.642 65.3108 301.329 65.0254 300.01L66.002 299.799L66.0039 299.798C65.7227 298.498 65.4539 297.191 65.2012 295.878V295.879L64.2197 296.068C63.9661 294.75 63.7266 293.424 63.502 292.093L64.4883 291.927L64.4893 291.926C64.268 290.614 64.0607 289.297 63.8682 287.974L63.8672 287.975L62.8779 288.119C62.6848 286.791 62.5058 285.457 62.3418 284.118L63.335 283.996L63.3369 283.995C63.1752 282.674 63.0274 281.348 62.8945 280.017L62.8926 280.018L61.8975 280.117C61.7644 278.783 61.6459 277.443 61.542 276.099L62.5391 276.021L62.541 276.021C62.4385 274.693 62.3499 273.361 62.2764 272.024L62.2744 272.025L61.2764 272.08C61.2028 270.742 61.1439 269.399 61.0996 268.052L62.0986 268.02L62.0996 268.019C62.0558 266.687 62.0254 265.352 62.0107 264.012V264.013L61.0107 264.023C61.0034 263.35 61 262.676 61 262C61 261.324 61.0034 260.65 61.0107 259.977L62.0107 259.987C62.0254 258.647 62.0558 257.312 62.0996 255.98H62.0986L61.0996 255.948C61.1439 254.601 61.2028 253.258 61.2764 251.92L62.2744 251.975H62.2764C62.3499 250.638 62.4385 249.306 62.541 247.979H62.5391L61.542 247.901C61.6459 246.557 61.7644 245.217 61.8975 243.883L62.8926 243.982H62.8945C63.0274 242.651 63.1752 241.325 63.3369 240.004H63.335L62.3418 239.882C62.5058 238.543 62.6848 237.209 62.8779 235.881L63.8672 236.025H63.8682C64.0607 234.702 64.268 233.385 64.4893 232.073H64.4883L63.502 231.907C63.7266 230.576 63.9661 229.25 64.2197 227.932L65.2012 228.121C65.4539 226.808 65.7227 225.501 66.0039 224.201H66.002L65.0254 223.99C65.3108 222.671 65.6105 221.358 65.9248 220.053L66.8965 220.287H66.8984C67.2117 218.986 67.5392 217.692 67.8809 216.405H67.8789L66.9131 216.148C67.2593 214.845 67.6194 213.549 67.9941 212.261L68.9541 212.54H68.9551C69.3292 211.254 69.7169 209.976 70.1191 208.706L69.166 208.404C69.573 207.12 69.9946 205.844 70.4297 204.576L71.375 204.9H71.376C71.8112 203.633 72.2615 202.374 72.7246 201.124L72.7227 201.123L71.7852 200.775C72.2527 199.513 72.7351 198.261 73.2305 197.018L74.1592 197.388H74.1602C74.6568 196.141 75.1662 194.903 75.6904 193.676L74.7705 193.283C75.2992 192.045 75.8423 190.817 76.3984 189.6L77.3076 190.016H77.3086C77.8659 188.795 78.438 187.586 79.0225 186.387L79.0205 186.386L78.1221 185.947C78.7124 184.736 79.3162 183.535 79.9336 182.346L80.8213 182.807C81.4384 181.618 82.0691 180.44 82.7129 179.273L81.8369 178.79C82.489 177.609 83.1552 176.439 83.834 175.281L84.6963 175.787L84.6973 175.788C85.3737 174.634 86.0621 173.492 86.7646 172.362L85.916 171.834C86.6295 170.687 87.3559 169.552 88.0957 168.431L88.9307 168.98L88.9326 168.981C89.6695 167.864 90.4191 166.76 91.1816 165.669L91.1807 165.668L90.3613 165.095C91.1342 163.989 91.9201 162.896 92.7188 161.817L93.5225 162.413C94.3198 161.336 95.1306 160.274 95.9531 159.225L95.9521 159.224L95.166 158.606C95.9973 157.546 96.841 156.501 97.6973 155.47L98.4668 156.108C99.3239 155.076 100.194 154.06 101.076 153.059L101.075 153.058L100.324 152.396C101.215 151.385 102.118 150.388 103.033 149.407L103.765 150.09L103.766 150.091C104.68 149.111 105.605 148.148 106.543 147.2L106.542 147.199L105.832 146.495C106.782 145.536 107.743 144.593 108.717 143.667L109.406 144.392L109.407 144.393C110.376 143.471 111.356 142.565 112.348 141.678V141.677L111.681 140.932C112.687 140.031 113.706 139.148 114.735 138.282L115.379 139.048L115.38 139.049C116.405 138.187 117.44 137.343 118.487 136.518L117.868 135.732C118.928 134.898 119.999 134.081 121.08 133.284L121.674 134.09L121.675 134.091C122.753 133.296 123.841 132.519 124.94 131.763L124.374 130.938C125.485 130.174 126.608 129.43 127.74 128.706L128.279 129.548L128.28 129.55C129.408 128.829 130.544 128.126 131.691 127.445L131.182 126.585C132.342 125.897 133.514 125.228 134.694 124.582L135.175 125.46V125.461C136.348 124.819 137.53 124.198 138.722 123.599V123.598L138.272 122.704C139.478 122.098 140.693 121.513 141.917 120.951L142.335 121.859V121.86C143.549 121.303 144.773 120.768 146.006 120.255V120.253L145.622 119.329C146.867 118.811 148.121 118.315 149.383 117.843L149.733 118.779V118.78C150.984 118.312 152.244 117.867 153.512 117.445V117.443L153.196 116.495C154.475 116.069 155.762 115.667 157.057 115.289L157.337 116.249C158.619 115.875 159.909 115.527 161.206 115.2V115.197L160.962 114.228C162.268 113.899 163.581 113.594 164.901 113.314L165.108 114.293V114.294C166.414 114.017 167.727 113.766 169.046 113.538V113.536L168.875 112.551C170.202 112.322 171.535 112.118 172.875 111.938L173.008 112.93V112.931C174.328 112.754 175.654 112.603 176.986 112.477V112.475L176.892 111.479C178.232 111.351 179.579 111.249 180.932 111.172L180.988 112.171V112.173C182.316 112.097 183.65 112.047 184.988 112.021V112.019L184.97 111.02C185.645 111.007 186.322 111 187 111Z" stroke="white" stroke-width="2" stroke-dasharray="4 4"/>
</svg>
